<?xml version="1.0" encoding="UTF-8"?>
<svg version="1.1" xmlns="http://www.w3.org/2000/svg" width="4157" height="4157">
<path d="M0 0 C0.68835938 0.60714844 1.37671875 1.21429687 2.0859375 1.83984375 C22.37423527 20.84554798 21.27963661 47.74129054 22.50234384 73.47256405 C22.68291256 77.24271948 22.87087683 81.01250779 23.05786502 84.78234929 C23.38403338 91.37853887 23.70553754 97.97494272 24.02392578 104.57151222 C24.49741384 114.38121223 24.97817115 124.19054673 25.4603453 133.99982315 C26.32144912 151.52279401 27.17539501 169.04610813 28.02635271 186.56957431 C28.771166 201.9066405 29.51849916 217.24358143 30.26830673 232.58040428 C30.34296324 234.10754564 30.34296324 234.10754564 30.41912796 235.66553833 C30.62118051 239.79854719 30.82324607 243.9315554 31.02533037 248.0645627 C32.92042028 286.82331999 34.80845568 325.58241802 36.69309757 364.34168459 C38.36653628 398.75660907 40.04536369 433.17126647 41.72900391 467.58569336 C42.16007872 476.39719968 42.59114995 485.20870618 43.02217293 494.02021503 C43.07524167 495.10510596 43.12831042 496.18999688 43.18298731 497.30776328 C44.59057071 526.08474439 45.99401602 554.86192728 47.39615428 583.63917416 C47.54709058 586.73688948 47.69802773 589.83460476 47.84896651 592.93231996 C47.94908957 594.98716241 48.04920943 597.04200501 48.14932606 599.09684777 C48.84651782 613.4056514 49.54532017 627.71437558 50.24523354 642.02304633 C51.14744501 660.46746097 52.04679984 678.91201113 52.94113888 697.3568093 C53.4138693 707.10465156 53.88897022 716.85237124 54.36755556 726.59992783 C54.68741982 733.119774 55.00406708 739.6397714 55.31815215 746.15989851 C55.49690763 749.86890329 55.67698987 753.57782953 55.86098386 757.28657845 C58.67638153 814.12103854 58.67638153 814.12103854 42.25 833.8125 C30.03995376 846.63422486 15.25913682 852.89802913 -2.19116211 853.72412109 C-3.69856933 853.80486563 -3.69856933 853.80486563 -5.23642921 853.88724136 C-8.60387833 854.06541471 -11.97179501 854.23201277 -15.33984375 854.3984375 C-17.76955461 854.52414012 -20.19923632 854.65040713 -22.62889099 854.77719116 C-30.03468192 855.160376 -37.44114348 855.52889195 -44.84784985 855.8938427 C-47.01594683 856.0007866 -49.18402122 856.10817775 -51.35208893 856.2157135 C-73.94380282 857.33608697 -96.53696699 858.42581971 -119.13051605 859.508461 C-130.48004684 860.05232272 -141.82954946 860.59674728 -153.17888397 861.14469182 C-157.69175126 861.36247786 -162.20468868 861.57872185 -166.71769249 861.79365945 C-168.83519615 861.89475402 -170.9526621 861.99660051 -173.07011414 862.09877014 C-175.62356754 862.22197115 -178.17707549 862.34405032 -180.73065186 862.4646759 C-184.15451437 862.63101686 -187.57715117 862.81408393 -191 863 C-192.09666898 863.04970318 -193.19333796 863.09940636 -194.32323933 863.15061569 C-204.25210465 863.70059983 -213.82577263 865.43532997 -223.57250977 867.296875 C-225.41061216 867.64187773 -227.24884522 867.98618486 -229.08719635 868.32985973 C-234.07710733 869.26473989 -239.06514108 870.20930423 -244.05289769 871.15560126 C-249.37919336 872.16434263 -254.70720295 873.16395253 -260.03501892 874.16462708 C-269.14295911 875.87654316 -278.24982607 877.59406944 -287.35595703 879.31558228 C-300.42492553 881.78624467 -313.49554138 884.2480966 -326.56661439 886.70759785 C-346.6901074 890.4942484 -366.81250077 894.28670092 -386.93408203 898.08349609 C-408.20596864 902.0972461 -429.47943395 906.10250862 -450.75465846 910.09852648 C-452.9839943 910.51725863 -455.2133208 910.93604052 -457.44264412 911.35483932 C-464.46432203 912.67391888 -471.48603298 913.99282238 -478.50778198 915.31152344 C-491.46366661 917.74466964 -504.41945245 920.17834074 -517.375 922.61328125 C-518.58221144 922.8401424 -519.78942287 923.06700356 -521.03321648 923.30073929 C-536.6332262 926.23272295 -552.23079294 929.17735459 -567.82629395 932.13322449 C-575.84940594 933.65372782 -583.87335247 935.1698037 -591.89754486 936.68459415 C-598.13473457 937.86244812 -604.3707637 939.04618907 -610.60586548 940.23504353 C-614.33973878 940.94551101 -618.07468727 941.65018831 -621.80996704 942.35321999 C-623.50434838 942.67334877 -625.19828178 942.99586028 -626.89169312 943.32108116 C-647.76301928 947.32667829 -666.63838919 948.70006295 -685.7421875 937.5390625 C-699.21895562 928.35247662 -708.34839756 915.3849411 -711.92114258 899.45214844 C-712.08941213 898.71773907 -712.25768167 897.9833297 -712.4310503 897.2266655 C-714.36198671 888.63621002 -715.96948025 879.98414962 -717.56226158 871.32582855 C-718.16839882 868.03091467 -718.7796519 864.73697853 -719.39179993 861.44317627 C-720.32226587 856.43328233 -721.25044613 851.42297207 -722.17700195 846.41235352 C-724.78738525 832.29755895 -727.4152348 818.18600355 -730.04144144 804.07414627 C-730.51742743 801.51619654 -730.99326761 798.95821972 -731.46908188 796.40023804 C-737.55555004 763.68221687 -743.68837645 730.97295102 -749.83203125 698.265625 C-750.07288625 696.98334157 -750.31374125 695.70105813 -750.56189489 694.37991762 C-753.20321503 680.31811274 -755.84513624 666.25642082 -758.48734809 652.19478346 C-763.91683037 623.29951859 -769.34408481 594.40383542 -774.76953125 565.5078125 C-774.90388464 564.79225282 -775.03823804 564.07669313 -775.17666274 563.33944982 C-788.11400647 494.435468 -801.01047346 425.52385232 -813.89563751 356.61009598 C-814.68196933 352.40455974 -815.46833289 348.19902945 -816.25469971 343.99349976 C-817.40537412 337.83962598 -818.55598313 331.68573998 -819.70655297 325.53184666 C-820.4542043 321.533034 -821.20194568 317.5342382 -821.9497542 313.53545494 C-824.43358472 300.2533573 -826.91523788 286.97086004 -829.3913269 273.68731689 C-830.27415831 268.95263348 -831.15724273 264.21799732 -832.04052734 259.48339844 C-832.25329937 258.34275704 -832.46607139 257.20211564 -832.68529105 256.02690935 C-835.40883238 241.43310697 -838.16633139 226.84628706 -840.9633292 212.26638961 C-841.98000546 206.95964367 -842.98967711 201.65155988 -843.99921852 196.34345257 C-844.75681605 192.36470653 -845.51971673 188.38715527 -846.29672813 184.41215134 C-855.07949549 139.45876508 -855.07949549 139.45876508 -842.765625 118.5625 C-839.5968643 113.96359067 -835.93577013 109.94972676 -832 106 C-831.18789063 105.15308594 -831.18789063 105.15308594 -830.359375 104.2890625 C-822.2748548 96.57202049 -812.05026656 92.90971943 -801.31835938 90.78637695 C-799.79751614 90.47772563 -799.79751614 90.47772563 -798.24594879 90.16283894 C-782.66731912 87.06425198 -767.00162641 84.40719029 -751.35834169 81.6596089 C-738.17377155 79.34032278 -725.00111133 76.95472126 -711.82841206 74.5690788 C-699.04311881 72.25360327 -686.2547941 69.96102781 -673.45263672 67.74047852 C-663.21725669 65.96501494 -652.99211673 64.14014967 -642.77611208 62.25628358 C-637.38829704 61.26459363 -631.99867783 60.29790806 -626.59587097 59.39110374 C-621.52713236 58.53971949 -616.47468257 57.62282472 -611.42690468 56.65510941 C-609.58020532 56.31302217 -607.72890422 55.99473513 -605.87360191 55.70288658 C-596.29883912 54.45056479 -596.29883912 54.45056479 -588.52525902 49.31038499 C-586.41250926 46.01641003 -584.9475899 42.62018754 -583.60839081 38.95428944 C-579.71153257 28.30445211 -568.70838105 20.03483867 -559 15 C-549.08095633 10.77364728 -539.18224823 9.00041955 -528.46774292 8.50492859 C-527.63037706 8.4635532 -526.7930112 8.4221778 -525.93027061 8.37954861 C-523.12406659 8.24169139 -520.31765961 8.1085314 -517.51123047 7.9753418 C-515.47915127 7.87648256 -513.44708624 7.77733152 -511.41503429 7.67791367 C-505.83086935 7.40553584 -500.24651442 7.13724242 -494.66212201 6.86957431 C-488.64087567 6.58021698 -482.61981863 6.286971 -476.59873962 5.99415588 C-466.1664001 5.48731831 -455.73395177 4.98276527 -445.30142212 4.4798584 C-429.51361536 3.71876861 -413.72598312 2.95410471 -397.93840064 2.18837801 C-395.84072017 2.08663686 -393.74303936 1.98490269 -391.64535844 1.88317084 C-390.60202546 1.83257193 -390.60202546 1.83257193 -389.53761505 1.78095082 C-388.12798725 1.71258778 -386.71835946 1.64422478 -385.30873166 1.57586183 C-381.76093251 1.40380279 -378.21313371 1.23173649 -374.6653356 1.05965602 C-366.72718456 0.67464726 -358.78901891 0.28994177 -350.85083741 -0.09443814 C-309.57269341 -2.09320318 -268.2955145 -4.11089546 -227.01909673 -6.14499163 C-219.86682539 -6.49743469 -212.71453506 -6.84949162 -205.56224239 -7.20150163 C-199.94579935 -7.47792778 -194.32935891 -7.75440669 -188.7129184 -8.03088431 C-187.32461334 -8.09922563 -185.93630824 -8.1675659 -184.54800308 -8.23590513 C-168.19899217 -9.04069568 -151.85004136 -9.84667989 -135.50121733 -10.65525822 C-124.59077309 -11.19482694 -113.68023245 -11.7324117 -102.76960069 -12.2681753 C-95.72866433 -12.61400729 -88.68784246 -12.96205217 -81.64710402 -13.31188935 C-77.37121071 -13.52377459 -73.09520918 -13.73340595 -68.81917214 -13.94236887 C-66.8646181 -14.038328 -64.91010858 -14.13519922 -62.95565009 -14.23308527 C-40.19320303 -15.37198479 -18.12604366 -16.25912905 0 0 Z " fill="#FEFEFE" transform="translate(982,1609)"/>
<path d="M0 0 C1.27622238 2.55244477 0.7122044 3.29621053 0 6 C-1.73634339 31.90288089 0.95336585 58.45592093 2.24993134 84.32040942 C2.54814762 90.29790092 2.83956831 96.27572169 3.13122039 102.25353614 C3.72883661 114.49781671 4.33299321 126.74176612 4.94096375 138.98553658 C5.54719152 151.19473755 6.15032537 163.4040854 6.74958801 175.61363029 C6.78724472 176.38082675 6.82490144 177.1480232 6.86369926 177.93846803 C7.0551768 181.83984392 7.24660094 185.74122243 7.43800431 189.64260196 C8.79415958 217.28325476 10.15683491 244.92358262 11.5234375 272.5637207 C12.82989323 298.98772371 14.13373392 325.4118533 15.43359375 351.83618164 C15.47319244 352.64113732 15.51279113 353.446093 15.55358978 354.27544128 C16.0712231 364.79787023 16.58872117 375.32030583 17.10617375 385.84274366 C17.81469341 400.25050625 18.52334756 414.65826221 19.23217773 429.06600952 C19.27081591 429.85140238 19.30945409 430.63679524 19.34926312 431.44598788 C20.46691708 454.16405807 21.58713369 476.88200053 22.70970094 499.59982847 C23.3444891 512.44640224 23.97895279 525.29299205 24.61322746 538.13959118 C24.68609316 539.61540977 24.75896144 541.09122823 24.83183232 542.56704656 C26.68737225 580.14706973 28.52609821 617.72781819 30.32218075 655.31074011 C30.61422102 661.42082394 30.90730807 667.53085723 31.20063019 673.64087963 C31.33971157 676.53910053 31.47877603 679.43732224 31.61783022 682.33554444 C31.70770347 684.20870833 31.79759046 686.08187156 31.88749176 687.9550341 C32.38983042 698.42492518 32.88773682 708.89500331 33.37732315 719.36549874 C33.66760789 725.56790991 33.96257294 731.7700861 34.26146746 737.97208832 C34.42742602 741.41999121 34.59110443 744.86795861 34.74808311 748.31628299 C34.91515358 751.96302281 35.09084665 755.60924931 35.26867676 759.25547791 C35.3135502 760.28405822 35.35842364 761.31263853 35.40465689 762.37238795 C36.39063148 781.86564447 41.78099615 797.80915343 56.03515625 811.5703125 C73.44577537 825.8383034 92.32273553 825.39390481 113.80859375 824.4140625 C115.21072971 824.35206607 116.61287537 824.29028871 118.01502991 824.22871399 C121.72457843 824.06497497 125.43394627 823.89745012 129.14328003 823.7289238 C131.45436798 823.62423591 133.76550411 823.52068407 136.07666016 823.41751099 C154.65203663 822.58808416 173.22452474 821.72245407 191.79052734 820.7019043 C200.05792223 820.24916432 208.32612474 819.83915888 216.59765625 819.46875 C218.09097977 819.40186729 218.09097977 819.40186729 219.61447144 819.33363342 C224.46027216 819.11767013 229.3062068 818.90529756 234.15234375 818.69702148 C244.8441507 818.23563045 244.8441507 818.23563045 255.51953125 817.49609375 C263.42589954 816.84514385 271.34592144 816.56213136 279.27111816 816.24090576 C294.02096913 815.64186459 308.76603509 814.97682047 323.5078125 814.203125 C324.81618073 814.13475433 326.12454895 814.06638367 327.4725647 813.99594116 C333.90541234 813.65879606 340.33788427 813.31579587 346.77001953 812.96533203 C359.52747542 812.28423385 372.22374602 811.79148547 385 812 C385 812.33 385 812.66 385 813 C384.05062215 813.17795074 383.1012443 813.35590147 382.12309742 813.53924465 C351.18612088 819.33807244 320.24926537 825.13754577 289.3125 830.9375 C288.12660656 831.15982788 286.94071312 831.38215575 285.71888351 831.61122084 C228.98814666 842.24697203 172.25748156 852.88307538 115.53261662 863.550107 C106.27559747 865.29085109 97.01834116 867.03032903 87.76098633 868.76928711 C82.71563604 869.7171707 77.67030864 870.66517603 72.625 871.61328125 C70.81406388 871.95358148 70.81406388 871.95358148 68.9665432 872.30075645 C53.36661439 875.23273833 37.76912859 878.17736946 22.17370605 881.13322449 C14.15059406 882.65372782 6.12664753 884.1698037 -1.89754486 885.68459415 C-8.13473457 886.86244812 -14.3707637 888.04618907 -20.60586548 889.23504353 C-24.33973878 889.94551101 -28.07468727 890.65018831 -31.80996704 891.35321999 C-33.50434838 891.67334877 -35.19828178 891.99586028 -36.89169312 892.32108116 C-57.76301928 896.32667829 -76.63838919 897.70006295 -95.7421875 886.5390625 C-109.21895562 877.35247662 -118.34839756 864.3849411 -121.92114258 848.45214844 C-122.08941213 847.71773907 -122.25768167 846.9833297 -122.4310503 846.2266655 C-124.36198671 837.63621002 -125.96948025 828.98414962 -127.56226158 820.32582855 C-128.16839882 817.03091467 -128.7796519 813.73697853 -129.39179993 810.44317627 C-130.32226587 805.43328233 -131.25044613 800.42297207 -132.17700195 795.41235352 C-134.78738525 781.29755895 -137.4152348 767.18600355 -140.04144144 753.07414627 C-140.51742743 750.51619654 -140.99326761 747.95821972 -141.46908188 745.40023804 C-147.55555004 712.68221687 -153.68837645 679.97295102 -159.83203125 647.265625 C-160.07288625 645.98334157 -160.31374125 644.70105813 -160.56189489 643.37991762 C-163.20321503 629.31811274 -165.84513624 615.25642082 -168.48734809 601.19478346 C-173.91683037 572.29951859 -179.34408481 543.40383542 -184.76953125 514.5078125 C-184.90388464 513.79225282 -185.03823804 513.07669313 -185.17666274 512.33944982 C-198.11400647 443.435468 -211.01047346 374.52385232 -223.89563751 305.61009598 C-224.68196933 301.40455974 -225.46833289 297.19902945 -226.25469971 292.99349976 C-227.40537412 286.83962598 -228.55598313 280.68573998 -229.70655297 274.53184666 C-230.4542043 270.533034 -231.20194568 266.5342382 -231.9497542 262.53545494 C-234.43358472 249.2533573 -236.91523788 235.97086004 -239.3913269 222.68731689 C-240.27415831 217.95263348 -241.15724273 213.21799732 -242.04052734 208.48339844 C-242.25329937 207.34275704 -242.46607139 206.20211564 -242.68529105 205.02690935 C-245.40883238 190.43310697 -248.16633139 175.84628706 -250.9633292 161.26638961 C-251.98000546 155.95964367 -252.98967711 150.65155988 -253.99921852 145.34345257 C-254.75681605 141.36470653 -255.51971673 137.38715527 -256.29672813 133.41215134 C-265.07949549 88.45876508 -265.07949549 88.45876508 -252.765625 67.5625 C-249.5968643 62.96359067 -245.93577013 58.94972676 -242 55 C-241.45859375 54.43539063 -240.9171875 53.87078125 -240.359375 53.2890625 C-232.27065931 45.5680157 -222.07466032 41.92331417 -211.3359375 39.8215332 C-210.32260849 39.61689862 -209.30927948 39.41226404 -208.26524353 39.20142841 C-190.47075155 35.64822975 -172.62227826 32.3595897 -154.78651428 29.02165389 C-149.32902996 27.99975947 -143.87206439 26.97510203 -138.41503906 25.95075989 C-128.12077549 24.01883908 -117.8260597 22.08933956 -107.5311718 20.16074878 C-95.79408359 17.96185863 -84.05751335 15.76020995 -72.32098198 13.55834997 C-48.21455582 9.03586922 -24.10749374 4.5167862 0 0 Z " fill="#7516A3" transform="translate(392,1660)"/>
<path d="M0 0 C-1.30247347 6.64728844 -2.68853924 13.2692735 -4.1875 19.875 C-4.39890625 20.81206787 -4.6103125 21.74913574 -4.828125 22.71459961 C-6.04538026 28.04313453 -7.33236465 33.34652167 -8.70703125 38.63671875 C-14.62542855 61.42684411 -19.74346552 84.36462329 -20 108 C-20.04060547 109.89105469 -20.04060547 109.89105469 -20.08203125 111.8203125 C-20.12559668 115.55109727 -20.07628151 119.26983426 -20 123 C-19.99806641 123.66805664 -19.99613281 124.33611328 -19.99414062 125.02441406 C-19.86547173 152.80402749 -12.70262574 183.07962027 3.01953125 206.28125 C4.09351056 208.16392289 4.56854997 209.88450307 5 212 C5.66 212 6.32 212 7 212 C8.25033597 213.57716239 9.42442042 215.21501322 10.5625 216.875 C20.91594574 231.37354161 32.9562687 241.20185172 49 249 C49.67160156 249.32742188 50.34320312 249.65484375 51.03515625 249.9921875 C62.68029156 254.95736607 77.66134232 256.66781788 90 254 C102.1508194 222.66692257 94.64802985 194.9463451 84.90625 163.9140625 C81.41981879 152.70338284 78.61292113 141.80590563 79 130 C79.66 130 80.32 130 81 130 C81 130.66 81 131.32 81 132 C81.7425 132.268125 82.485 132.53625 83.25 132.8125 C85.92079616 133.96579834 87.754012 135.17513475 90 137 C92.7437451 139.2005204 95.49215517 141.38571435 98.296875 143.5078125 C98.86792969 143.9409375 99.43898438 144.3740625 100.02734375 144.8203125 C101.14795438 145.66902894 102.27026467 146.51550745 103.39453125 147.359375 C106.87862961 150.01311085 109.94049042 152.87303667 113 156 C114.44678264 157.33533859 115.89396795 158.67029439 117.35083008 159.99462891 C127.66443351 169.3735174 137.90867546 178.8786951 146.40625 189.96875 C148.06855781 192.1709042 148.06855781 192.1709042 150.5625 194.5625 C156.49957832 200.49957832 161.22185875 207.61863826 166.10546875 214.421875 C167.40508927 216.19043076 168.74780251 217.92787995 170.125 219.63671875 C171.94856966 221.93517634 173.3880078 224.29674936 174.80859375 226.859375 C176.29571511 229.53131765 177.83421107 232.17114755 179.375 234.8125 C180.27412109 236.35550781 180.27412109 236.35550781 181.19140625 237.9296875 C183.33089803 241.5617405 185.52329874 245.15964262 187.73828125 248.74609375 C189.05958565 251.10644247 190.02308917 253.47996879 191 256 C191.6495217 257.36247325 192.31537679 258.71732237 193 260.0625 C193.33 260.71347656 193.66 261.36445312 194 262.03515625 C194.67960879 263.37048134 195.38934082 264.69080958 196.125 265.99609375 C197 268 197 268 197 272 C197.66 272 198.32 272 199 272 C201.74569811 279.37810499 204.33587714 286.80210942 206.78125 294.28515625 C207.51057409 296.50819218 208.2553466 298.72638369 209.03125 300.93359375 C225.90539182 351.07973294 221.04407298 405.83843649 204 455 C203.6302002 456.07169434 203.6302002 456.07169434 203.25292969 457.16503906 C199.95979479 466.61241267 196.04343121 475.32300585 191 484 C190.4946875 484.88300781 189.989375 485.76601562 189.46875 486.67578125 C185.95842581 492.67880906 182.080818 498.37242034 178 504 C177.6184375 504.53044922 177.236875 505.06089844 176.84375 505.60742188 C175.63292694 507.28588653 174.41192 508.9564349 173.1875 510.625 C172.43855469 511.64851563 171.68960937 512.67203125 170.91796875 513.7265625 C169.96857422 514.85191406 169.96857422 514.85191406 169 516 C168.34 516 167.68 516 167 516 C166.74476563 516.57975586 166.48953125 517.15951172 166.2265625 517.75683594 C164.87415223 520.23015312 163.36267476 521.89602109 161.375 523.890625 C160.66859375 524.59960938 159.9621875 525.30859375 159.234375 526.0390625 C158.49703125 526.76867188 157.7596875 527.49828125 157 528.25 C156.26265625 528.99507812 155.5253125 529.74015625 154.765625 530.5078125 C153.70601562 531.56355469 153.70601562 531.56355469 152.625 532.640625 C151.97789062 533.28547852 151.33078125 533.93033203 150.6640625 534.59472656 C149 536 149 536 147 536 C146.67 536.99 146.34 537.98 146 539 C145.34 539 144.68 539 144 539 C144 539.66 144 540.32 144 541 C142.28759766 542.42041016 142.28759766 542.42041016 139.9140625 544.0390625 C139.06585937 544.61914062 138.21765625 545.19921875 137.34375 545.796875 C136.4465625 546.40015625 135.549375 547.0034375 134.625 547.625 C133.73554687 548.23601563 132.84609375 548.84703125 131.9296875 549.4765625 C125.26569475 554 125.26569475 554 123 554 C123 554.66 123 555.32 123 556 C120.69921875 557.7265625 120.69921875 557.7265625 117.6875 559.625 C116.70136719 560.25664062 115.71523438 560.88828125 114.69921875 561.5390625 C112 563 112 563 109 563 C108.67 563.99 108.34 564.98 108 566 C106.2578125 567.16796875 106.2578125 567.16796875 104.125 568.1875 C103.42632813 568.53167969 102.72765625 568.87585937 102.0078125 569.23046875 C100 570 100 570 97 570 C97 570.66 97 571.32 97 572 C95.47632813 572.63808594 95.47632813 572.63808594 93.921875 573.2890625 C90.29000134 574.8458405 86.77184281 576.58161921 83.25 578.375 C67.39606546 586.37622954 67.39606546 586.37622954 59 589 C57.33748037 589.61824729 55.67616847 590.23974566 54.015625 590.86328125 C30.38321338 599.47683693 1.88329448 605.66729421 -23 599 C-23.38547283 583.21590217 -18.6630162 565.05060207 -11.10546875 551.16796875 C-10.03006408 549.05895959 -9.34587541 547.0811694 -8.6875 544.8125 C-7.34638716 540.45773705 -5.25313079 536.59877153 -3.0625 532.625 C-0.19376986 527.41828385 2.10921342 522.34180131 4.00390625 516.69140625 C5.54495827 512.52754412 7.6034614 508.64851917 9.62109375 504.69921875 C13.35634922 497.38742972 15.67480082 489.84645866 18 482 C18.35449219 480.86949219 18.70898438 479.73898437 19.07421875 478.57421875 C26.17109278 455.27853187 26.76537497 428.10925294 20.125 404.625 C19.74021484 403.18833984 19.74021484 403.18833984 19.34765625 401.72265625 C18.03660104 396.98572813 16.60388976 393.18530971 14 389 C13.50985405 387.60017934 13.04939375 386.18981473 12.609375 384.7734375 C11.00986538 379.75263912 8.7453008 375.25425894 6.25 370.625 C5.8068042 369.79427979 5.3636084 368.96355957 4.90698242 368.10766602 C-0.80446134 357.50897199 -7.4224955 347.58653005 -14.55078125 337.890625 C-18 333.18802817 -18 333.18802817 -18 331 C-18.66 331 -19.32 331 -20 331 C-21.9383786 328.76658661 -23.76186519 326.52763358 -25.5625 324.1875 C-26.06974609 323.54490234 -26.57699219 322.90230469 -27.09960938 322.24023438 C-29.27052883 319.45070406 -30.86992232 317.39023304 -32 314 C-32.598125 313.71125 -33.19625 313.4225 -33.8125 313.125 C-36.6872613 311.64655133 -38.04799784 309.53760281 -40 307 C-40.66 306.67 -41.32 306.34 -42 306 C-41.99555878 306.84428558 -41.99111755 307.68857117 -41.98654175 308.55844116 C-41.94591657 316.64420822 -41.91574382 324.72993943 -41.89637566 332.81578636 C-41.88608261 336.96952152 -41.87220059 341.12317012 -41.84912109 345.27685547 C-41.74266387 364.96040652 -42.01716352 384.3929431 -44 404 C-44.07556625 404.77314041 -44.15113251 405.54628082 -44.22898865 406.34284973 C-45.20428124 416.21071053 -47.55988649 425.40816168 -50.37841797 434.87792969 C-50.94721077 436.81977848 -51.47757223 438.77277784 -52.00390625 440.7265625 C-56.43776983 457.16339569 -63.56154583 471.31271051 -72 486 C-72.55816406 486.9796875 -73.11632812 487.959375 -73.69140625 488.96875 C-77.05128344 494.7121298 -80.76578778 500.22385109 -84.48657227 505.73754883 C-86.27806175 508.39401655 -88.02176691 511.03684422 -89.65234375 513.796875 C-91.3918138 516.64053039 -93.6178285 518.67454687 -96 521 C-96.90616349 522.09570485 -97.80213714 523.19992012 -98.6875 524.3125 C-99.450625 525.199375 -100.21375 526.08625 -101 527 C-101.66 527 -102.32 527 -103 527 C-103.2475 527.763125 -103.495 528.52625 -103.75 529.3125 C-105.12130672 532.26080945 -106.2351079 533.35834532 -109 535 C-109.66 535 -110.32 535 -111 535 C-111.21269531 535.56847656 -111.42539062 536.13695313 -111.64453125 536.72265625 C-113.4787098 539.80428765 -115.78971502 541.33960548 -118.6875 543.4375 C-119.70199219 544.17871094 -120.71648437 544.91992188 -121.76171875 545.68359375 C-122.83035156 546.44800781 -123.89898438 547.21242188 -125 548 C-125.78745605 548.62612183 -125.78745605 548.62612183 -126.59082031 549.26489258 C-138.70656808 558.64834265 -156.05947515 561.67557288 -171 560 C-184.04290742 558.08147032 -196.11271601 551.64164191 -206 543 C-206 542.34 -206 541.68 -206 541 C-206.56589844 540.92007813 -207.13179687 540.84015625 -207.71484375 540.7578125 C-222.47750375 535.86216115 -234.94548103 509.55619993 -241.75 496.69140625 C-243 494 -243 494 -243 492 C-243.66 492 -244.32 492 -245 492 C-245.38091797 490.78763672 -245.38091797 490.78763672 -245.76953125 489.55078125 C-246.11371094 488.48214844 -246.45789063 487.41351562 -246.8125 486.3125 C-247.14894531 485.25675781 -247.48539062 484.20101562 -247.83203125 483.11328125 C-248.88421457 480.02382004 -248.88421457 480.02382004 -250.48828125 477.51953125 C-259.36954423 462.71742628 -262.07773427 441.78328291 -265 425 C-265.16556396 424.23896973 -265.33112793 423.47793945 -265.50170898 422.69384766 C-271.14856231 392.16597918 -268.39813772 354.30968634 -255 326 C-254.68417969 325.24203125 -254.36835938 324.4840625 -254.04296875 323.703125 C-246.16402607 304.79366258 -230.60362248 284.53435652 -212 275 C-211.01 275 -210.02 275 -209 275 C-208.93006836 275.7027002 -208.86013672 276.40540039 -208.78808594 277.12939453 C-204.67170845 330.70478097 -204.67170845 330.70478097 -178.5390625 375.8125 C-172.29002 380.63409624 -165.88735572 382.41355821 -158 381.8125 C-145.8740739 380.14962261 -134.37606093 374.01545489 -126 365 C-117.58847841 353.45121972 -116.20663961 340.40576659 -116.5625 326.5625 C-116.58340908 325.06617752 -116.6031654 323.56983853 -116.62182617 322.07348633 C-116.86044221 307.04128398 -118.11560868 292.15208725 -119.73046875 277.2109375 C-123.13259401 245.70108768 -125.34609252 214.23879532 -123.125 182.5625 C-123.00753418 180.88232788 -123.00753418 180.88232788 -122.88769531 179.16821289 C-122.4489822 173.61412171 -121.7731016 168.29931961 -120.45507812 162.88452148 C-119.88489462 160.52333776 -119.53141502 158.15362582 -119.1875 155.75 C-118.22155632 149.81634594 -116.92481953 143.97777889 -115.5625 138.125 C-115.35713623 137.22104492 -115.15177246 136.31708984 -114.94018555 135.38574219 C-113.78954294 130.53818171 -112.39210306 126.40858664 -110 122 C-109.54877751 120.69897516 -109.12901987 119.38636227 -108.75 118.0625 C-103.02533147 100.47749258 -92.67199125 82.32146166 -81 68 C-80.01 67.67 -79.02 67.34 -78 67 C-77.26676204 64.98491642 -77.26676204 64.98491642 -77 63 C-76.34 63 -75.68 63 -75 63 C-74.75636719 62.44957031 -74.51273438 61.89914062 -74.26171875 61.33203125 C-68.38348944 50.4673164 -58.26401609 41.89742364 -48.78125 34.27734375 C-45.43697184 31.53898116 -42.24436426 28.65924151 -39.0703125 25.7265625 C-36.83996176 23.86653414 -34.49672054 22.47496032 -32 21 C-31.34 20.34 -30.68 19.68 -30 19 C-27.83148971 16.83148971 -25.70804764 15.42528823 -23 14 C-22.34 14 -21.68 14 -21 14 C-21 13.34 -21 12.68 -21 12 C-18.98240724 10.61702098 -16.98214192 9.35721995 -14.875 8.125 C-13.725881 7.4412482 -12.57744008 6.75635552 -11.4296875 6.0703125 C-10.57648926 5.56419434 -10.57648926 5.56419434 -9.70605469 5.04785156 C-7.99569085 3.99735334 -6.34719921 2.88193912 -4.6953125 1.7421875 C-2 0 -2 0 0 0 Z " fill="#010101" transform="translate(740,1728)"/>
<path d="M0 0 C81.51 0 163.02 0 247 0 C247 12.21 247 24.42 247 37 C177.7 37 108.4 37 37 37 C37 59.77 37 82.54 37 106 C94.09 106 151.18 106 210 106 C210 118.21 210 130.42 210 143 C152.91 143 95.82 143 37 143 C37 164.78 37 186.56 37 209 C106.3 209 175.6 209 247 209 C247 220.88 247 232.76 247 245 C245.04175987 246.95824013 242.03846215 246.12303999 239.43151188 246.12908077 C238.47752223 246.12616811 237.52353258 246.12325544 236.54063416 246.12025452 C235.53766296 246.12111053 234.53469177 246.12196655 233.50132751 246.12284851 C230.10234852 246.12451446 226.70341791 246.11896271 223.30444336 246.11352539 C220.84129367 246.11321932 218.37814389 246.1133521 215.91499424 246.11389065 C209.96638834 246.11409423 204.01780143 246.10979404 198.06920028 246.10338932 C191.19233175 246.09620594 184.31547082 246.09539548 177.43859863 246.09460449 C159.27156336 246.08934828 141.10453146 246.07538725 122.9375 246.0625 C82.368125 246.041875 41.79875 246.02125 0 246 C0 164.82 0 83.64 0 0 Z " fill="#000000" transform="translate(1730,1977)"/>
<path d="M0 0 C25.18305632 -0.0904239 50.36598044 -0.16405394 75.5491581 -0.20724869 C87.2431178 -0.22784115 98.9369692 -0.25589825 110.63085938 -0.30175781 C120.82768529 -0.34172719 131.02443273 -0.36745689 141.22133482 -0.37635398 C146.6165135 -0.38155163 152.01146775 -0.39369861 157.40657425 -0.42292023 C162.49386935 -0.45024909 167.58084944 -0.45840993 172.66821098 -0.45243073 C174.52646413 -0.45352319 176.38472878 -0.46137226 178.24291801 -0.4768219 C197.30577357 -0.62742442 213.36801773 3.03087239 227.6484375 16.5859375 C243.28451433 32.63759112 247.23997633 51.20472089 247.18115234 72.97412109 C246.94096243 90.31439878 244.09450455 106.12560831 233 120 C232.56300781 120.61101563 232.12601563 121.22203125 231.67578125 121.8515625 C222.72997199 133.61812242 207.6087578 140.35443141 193.42211914 142.5871582 C187.21472192 143.33601379 180.99593982 143.47434417 174.75 143.625 C173.4075304 143.66330989 172.06508194 143.70236841 170.72265625 143.7421875 C167.48190024 143.83544667 164.24113534 143.92124464 161 144 C162.40466704 145.73045281 163.81130832 147.45930316 165.21875 149.1875 C166.00185547 150.15042969 166.78496094 151.11335938 167.59179688 152.10546875 C169.83341996 154.7997797 172.13706415 157.41202264 174.5 160 C178.41891252 164.29991791 182.09170869 168.75919547 185.75 173.28125 C187.93501569 175.92147729 190.19171391 178.4672972 192.5 181 C196.41891252 185.29991791 200.09170869 189.75919547 203.75 194.28125 C205.93501569 196.92147729 208.19171391 199.4672972 210.5 202 C214.41891252 206.29991791 218.09170869 210.75919547 221.75 215.28125 C223.93501569 217.92147729 226.19171391 220.4672972 228.5 223 C233.20716963 228.16881849 237.62249338 233.55113421 242 239 C242.74636719 239.89074219 243.49273438 240.78148438 244.26171875 241.69921875 C246 244 246 244 246 246 C239.34818493 246.28055676 232.69790962 246.47219556 226.04150391 246.60424805 C223.78115851 246.65932721 221.52120081 246.73421954 219.26220703 246.82983398 C199.45869398 247.64660878 199.45869398 247.64660878 194.38989258 243.69799805 C191.85069219 240.91915754 189.94221295 238.2147528 188 235 C186.50233366 233.12707085 184.98406065 231.27026246 183.4375 229.4375 C182.70402344 228.52871094 181.97054688 227.61992187 181.21484375 226.68359375 C179.04367173 224.05291443 176.79758643 221.52057576 174.5 219 C170.58108748 214.70008209 166.90829131 210.24080453 163.25 205.71875 C161.06498431 203.07852271 158.80828609 200.5327028 156.5 198 C152.58108748 193.70008209 148.90829131 189.24080453 145.25 184.71875 C143.06498431 182.07852271 140.80828609 179.5327028 138.5 177 C135.38541332 173.58260628 132.4081338 170.0947765 129.5 166.5 C125.88135321 162.02879245 122.12206385 157.72654808 118.23828125 153.484375 C116 151 116 151 115.05091858 149.25785828 C113.57537823 146.88817969 112.33213866 145.56796902 110 144 C104.4951177 142.92759664 99.03626363 143.04288605 93.4453125 143.09765625 C92.00184743 143.08806428 90.55839967 143.07534204 89.11499023 143.05944824 C83.78512086 143.0225863 78.45497177 143.0461532 73.125 143.0625 C61.20375 143.041875 49.2825 143.02125 37 143 C37 176.99 37 210.98 37 246 C24.79 246 12.58 246 0 246 C0 199.8 0 153.6 0 106 C20.09197266 105.94392578 20.09197266 105.94392578 40.58984375 105.88671875 C49.07097393 105.85644616 57.55209039 105.82542482 66.03320312 105.79101562 C79.49746461 105.73652855 92.96168801 105.68511558 106.42602539 105.65356445 C116.23209033 105.63057172 126.0380553 105.59715931 135.84404093 105.55129844 C141.03497296 105.52738355 146.22580608 105.50864336 151.41679192 105.50238609 C156.30629718 105.49632746 161.19554943 105.47629928 166.08496094 105.44572449 C167.87593897 105.43695678 169.66695007 105.43321905 171.45794868 105.43499184 C187.78659316 105.50960391 187.78659316 105.50960391 202 98 C207.80789161 90.22466544 208.26969633 83.54290919 208.35009766 74.07836914 C208.3665554 72.66348709 208.39370955 71.24868461 208.43212891 69.83422852 C208.69714983 60.00656121 208.18516328 51.60414489 201.21435547 44.07006836 C195.61350324 38.74652702 189.64009568 37.70122358 182.06533813 37.7215271 C181.28433664 37.7157347 180.50333514 37.7099423 179.69866693 37.70397437 C177.09154945 37.68702022 174.48460949 37.68410183 171.87744141 37.68115234 C170.00465463 37.671851 168.13187198 37.66168202 166.25909424 37.65071106 C161.18110787 37.62342026 156.10314922 37.60826433 151.02510881 37.59528303 C145.71595614 37.57964852 140.40686006 37.55285929 135.0977478 37.5272522 C125.04691739 37.48047014 114.99607632 37.44372322 104.94519269 37.41057932 C93.50146362 37.37235393 82.05779139 37.32294483 70.61411023 37.27259517 C47.07611024 37.16928379 23.53808633 37.0814971 0 37 C0 24.79 0 12.58 0 0 Z " fill="#000000" transform="translate(1450,1977)"/>
<path d="M0 0 C1.39070914 -0.00435513 2.78141589 -0.00954093 4.17211914 -0.01548767 C7.92643177 -0.02880435 11.68064328 -0.02946446 15.43497491 -0.02692437 C18.58072908 -0.02584944 21.72646322 -0.03075142 24.87221307 -0.03552979 C32.3007291 -0.04660011 39.72919456 -0.04707667 47.15771484 -0.04101562 C54.79386035 -0.03498046 62.42982139 -0.04728087 70.06593543 -0.06858569 C76.64630432 -0.08626266 83.22661481 -0.0921934 89.80700654 -0.08894795 C93.72640804 -0.08714429 97.64567799 -0.08967861 101.56505775 -0.10366249 C105.25469814 -0.11633562 108.94405334 -0.11420832 112.63368988 -0.1012516 C114.61370606 -0.09779857 116.59373133 -0.10899411 118.57371521 -0.12081909 C136.2617693 -0.01800302 151.81446018 5.72975471 164.3503418 18.3293457 C174.75607621 29.71675317 181.12291784 43.65160606 181.18891907 59.21018982 C181.19965202 60.95701805 181.19965202 60.95701805 181.21060181 62.73913574 C181.21329071 64.00310181 181.21597961 65.26706787 181.21875 66.56933594 C181.2250225 67.92517772 181.23166999 69.28101782 181.23866272 70.63685608 C181.25962189 75.07730939 181.27006137 79.5177627 181.2800293 83.95825195 C181.28408069 85.49394307 181.28819772 87.02963402 181.29237938 88.56532478 C181.31141765 95.7868159 181.32564835 103.00829691 181.33399135 110.22980827 C181.34374181 118.52990327 181.37000944 126.82973003 181.41049224 135.12973064 C181.44079939 141.56740223 181.45547418 148.0049976 181.45877236 154.44273907 C181.46110733 158.27683739 181.46986174 162.11064878 181.49523354 165.94466972 C181.51877499 169.56045132 181.52264494 173.17576237 181.51247215 176.79160118 C181.51175257 178.72458349 181.53066125 180.65754333 181.55053711 182.59042358 C181.44476155 200.71670314 175.40247554 215.66954373 162.76049805 228.61450195 C148.58888164 242.48069559 130.93664307 246.76389584 111.49731445 246.6628418 C109.58696159 246.67072723 109.58696159 246.67072723 107.63801575 246.67877197 C104.18944348 246.69227915 100.74114484 246.68721614 97.29256868 246.67763472 C93.65258928 246.66994745 90.01263064 246.67710883 86.37265015 246.68179321 C80.26198192 246.68722612 74.15142304 246.68012587 68.04077148 246.66577148 C61.01863211 246.64946437 53.99675442 246.6547293 46.97462142 246.6712507 C40.90277926 246.684954 34.83101496 246.68674201 28.75916231 246.67893469 C25.15158908 246.67430444 21.54413796 246.6735024 17.93657303 246.68354416 C-28.06410772 246.79363985 -28.06410772 246.79363985 -45.7902832 229.5012207 C-46.86342773 228.39907227 -46.86342773 228.39907227 -47.95825195 227.2746582 C-48.58086914 226.68426758 -49.20348633 226.09387695 -49.8449707 225.4855957 C-53.93982991 221.30791912 -56.61683262 216.56152529 -59.27075195 211.3996582 C-59.77759521 210.42790649 -59.77759521 210.42790649 -60.29467773 209.43652344 C-65.0304894 199.77906445 -65.25633965 189.91871621 -65.2487793 179.32641602 C-65.25477669 177.94865561 -65.26158498 176.57089853 -65.26913452 175.19314575 C-65.28667908 171.47802208 -65.29148499 167.76299074 -65.29276609 164.04782963 C-65.29419488 161.7189369 -65.29847815 159.39006711 -65.30376053 157.06118011 C-65.32222293 148.91422556 -65.33043595 140.76733611 -65.32885742 132.62036133 C-65.32765719 125.06200836 -65.34874592 117.50394147 -65.38034475 109.94566083 C-65.40661505 103.42638489 -65.41722023 96.90720178 -65.4159466 90.38787341 C-65.4154401 86.50749542 -65.42094858 82.62737202 -65.4423027 78.74704742 C-65.46186769 75.09261928 -65.46168721 71.43868387 -65.44726944 67.78423691 C-65.44422858 65.82845377 -65.46072913 63.87266959 -65.47814941 61.91696167 C-65.3560552 44.45778289 -59.18419893 30.06573413 -47.19262695 17.45043945 C-33.71358329 4.32486722 -18.36852518 -0.03538758 0 0 Z M-21.83325195 45.0871582 C-22.36692383 45.71235352 -22.9005957 46.33754883 -23.45043945 46.98168945 C-28.28398715 54.33218816 -28.39906701 60.56983189 -28.37817383 69.21142578 C-28.38664337 70.50336349 -28.39511292 71.79530121 -28.40383911 73.12638855 C-28.42597745 76.65551657 -28.4289896 80.18441057 -28.4270916 83.71359849 C-28.42697151 86.66808329 -28.43555126 89.62251919 -28.44386911 92.57699031 C-28.46307642 99.5528252 -28.46599716 106.52854045 -28.45922852 113.50439453 C-28.45259307 120.68056231 -28.47543773 127.8562154 -28.51254225 135.03227884 C-28.54332023 141.21089903 -28.55459045 147.38935437 -28.55070543 153.56804961 C-28.54864586 157.25054456 -28.55399306 160.93263903 -28.57859802 164.61506081 C-28.60516684 168.72695151 -28.59107597 172.83776799 -28.57348633 176.94970703 C-28.58674957 178.15575592 -28.60001282 179.36180481 -28.61367798 180.60440063 C-28.53080271 188.96769167 -26.96587965 195.83813622 -21.23213959 202.18549824 C-13.68530642 209.44819231 -5.00196908 209.71345146 4.94018555 209.6628418 C6.21597473 209.66809875 7.49176392 209.67335571 8.80621338 209.67877197 C12.28559278 209.69237754 15.76470349 209.68717518 19.24408722 209.67763472 C22.89718819 209.67000284 26.5502672 209.67709348 30.20336914 209.68179321 C36.33638611 209.68724054 42.46929447 209.68008611 48.60229492 209.66577148 C55.67786299 209.64944687 62.75317166 209.65473611 69.82873344 209.6712507 C75.91986233 209.68489482 82.01091344 209.68677098 88.10205269 209.67893469 C91.73293429 209.6742742 95.36369424 209.67358831 98.99456787 209.68354416 C103.04430329 209.69387426 107.09359634 209.67952886 111.14331055 209.6628418 C112.93276093 209.67195084 112.93276093 209.67195084 114.75836182 209.6812439 C122.43194899 209.62276786 127.98972996 208.68657373 134.66674805 204.7121582 C140.30655907 198.9239311 144.14875158 192.05374296 144.19564819 183.93199158 C144.20424866 182.82323669 144.21284912 181.71448181 144.22171021 180.5721283 C144.22597015 179.35497635 144.2302301 178.1378244 144.23461914 176.88378906 C144.24279663 175.60218903 144.25097412 174.32058899 144.25939941 173.00015259 C144.28559886 168.74662371 144.30092974 164.49308513 144.31518555 160.23950195 C144.32054698 158.77273617 144.3259245 157.30597045 144.3313179 155.83920479 C144.35294784 149.7338938 144.37168107 143.62858542 144.38294029 137.52324581 C144.39915565 128.78904986 144.43227275 120.05530044 144.48934114 111.32127279 C144.52813885 105.172487 144.54758483 99.02382011 144.55286086 92.87491518 C144.55650231 89.20684714 144.56839261 85.53925558 144.60096359 81.87132072 C144.63685058 77.77104386 144.63264857 73.67171649 144.62524414 69.57128906 C144.64164948 68.36830673 144.65805481 67.1653244 144.67495728 65.92588806 C144.61047756 57.17850365 142.65655222 50.62078114 137.0144043 43.8371582 C136.38405273 43.3215332 135.75370117 42.8059082 135.10424805 42.2746582 C134.16258789 41.4702832 134.16258789 41.4702832 133.2019043 40.6496582 C128.80750082 37.85249722 124.43924338 37.02499532 119.29362488 37.00723267 C117.60951759 36.99443771 117.60951759 36.99443771 115.89138794 36.98138428 C114.67410004 36.98229065 113.45681213 36.98319702 112.20263672 36.98413086 C110.90923874 36.97741364 109.61584076 36.97069641 108.2832489 36.96377563 C104.74590357 36.9461582 101.2086551 36.94142204 97.67127013 36.94014406 C95.45768406 36.93871939 93.24412237 36.93444381 91.03054237 36.92914963 C83.29785228 36.91066286 75.56523099 36.90247724 67.83251953 36.90405273 C60.64109659 36.90525351 53.44997407 36.88416046 46.25862712 36.85256541 C40.07071664 36.82635433 33.882904 36.81568747 27.69493848 36.81696355 C24.00524495 36.81747181 20.31581854 36.81186499 16.62618065 36.79060745 C12.50692819 36.7675213 8.38834258 36.77677535 4.26904297 36.78881836 C3.05782776 36.77757935 1.84661255 36.76634033 0.59869385 36.75476074 C-8.01666986 36.8186524 -16.08075955 38.06110405 -21.83325195 45.0871582 Z " fill="#000000" transform="translate(2915.958251953125,1976.725341796875)"/>
<path d="M0 0 C81.18 0 162.36 0 246 0 C246 12.21 246 24.42 246 37 C236.33098592 46.66901408 236.33098592 46.66901408 231.296875 50.98828125 C228.31175546 53.60279921 225.4080275 56.30033971 222.5 59 C218.44005729 62.76575231 214.34587741 66.47220766 210.15625 70.09375 C207.22759638 72.68284958 204.36601823 75.34194681 201.5 78 C197.43985037 81.7655356 193.34588598 85.47220026 189.15625 89.09375 C186.22759638 91.68284958 183.36601823 94.34194681 180.5 97 C176.43985037 100.7655356 172.34588598 104.47220026 168.15625 108.09375 C165.22759638 110.68284958 162.36601823 113.34194681 159.5 116 C155.43985037 119.7655356 151.34588598 123.47220026 147.15625 127.09375 C144.22759638 129.68284958 141.36601823 132.34194681 138.5 135 C135.03712954 138.21159642 131.57351686 141.4110278 128 144.5 C123.88795707 148.05683038 119.9123038 151.75583684 115.92456055 155.45043945 C110.99335742 160.01610385 106.00693471 164.51752326 101 169 C95.59662142 173.84470939 90.21635577 178.71209075 84.875 183.625 C81.63782784 186.60218281 78.38862271 189.55952856 75.0625 192.4375 C69.27475195 197.51290983 63.6564505 202.77866107 58 208 C120.04 208.33 182.08 208.66 246 209 C246 221.21 246 233.42 246 246 C164.82 246 83.64 246 0 246 C0 233.46 0 220.92 0 208 C7.30771437 201.30126182 14.6216104 194.61919838 22 188 C23.66692647 186.50028872 25.33359149 185.00028679 27 183.5 C29.47502234 181.27170886 31.95071754 179.0442116 34.4296875 176.8203125 C39.0203061 172.69902232 43.58447107 168.55126212 48.125 164.375 C51.99638264 160.8149821 55.90947915 157.31294132 59.8828125 153.8671875 C63.10888518 151.02205329 66.2673544 148.10367121 69.43310547 145.19189453 C75.05408996 140.02384427 80.73723334 134.92596494 86.421875 129.828125 C91.0144815 125.70355484 95.58176587 121.55375029 100.125 117.375 C103.99638264 113.8149821 107.90947915 110.31294132 111.8828125 106.8671875 C115.10888518 104.02205329 118.2673544 101.10367121 121.43310547 98.19189453 C126.25584891 93.75776372 131.1234112 89.3748176 136 85 C137.66692647 83.50028872 139.33359149 82.00028679 141 80.5 C143.47502234 78.27170886 145.95071754 76.0442116 148.4296875 73.8203125 C153.0203061 69.69902232 157.58447107 65.55126212 162.125 61.375 C165.38390494 58.37819989 168.65499549 55.40085453 172 52.5 C177.41675176 47.76034221 182.69425374 42.86360074 188 38 C125.96 37.67 63.92 37.34 0 37 C0 24.79 0 12.58 0 0 Z " fill="#000000" transform="translate(3761,1977)"/>
<path d="M0 0 C25.14845229 -0.11705204 50.29686346 -0.20509512 75.44553375 -0.25906086 C87.12377557 -0.2847895 98.80184764 -0.31983759 110.47998047 -0.37719727 C120.66437414 -0.42719607 130.84864482 -0.45932978 141.03315783 -0.47044247 C146.42063159 -0.47693339 151.80775363 -0.49207666 157.19511414 -0.52865028 C162.2775375 -0.56287056 167.35946799 -0.57300093 172.44199562 -0.56553841 C174.29619345 -0.56690141 176.1504097 -0.57667741 178.00450706 -0.59602737 C194.46457204 -0.75922159 208.48810844 1.81070473 222 12 C222.70382813 12.51046875 223.40765625 13.0209375 224.1328125 13.546875 C236.45853063 23.31077721 243.77701732 38.6908626 246 54 C246.2743647 58.51934179 246.2736956 63.02609826 246.25878906 67.55273438 C246.26150523 68.88772267 246.26506965 70.22270947 246.26940918 71.55769348 C246.2784611 75.15480345 246.27501892 78.7517976 246.26865101 82.34890938 C246.26355346 86.13051773 246.26829283 89.9121168 246.27142334 93.69372559 C246.27505211 100.04176598 246.27029257 106.38975968 246.26074219 112.73779297 C246.24985973 120.05529634 246.25338608 127.37268821 246.264395 134.69018888 C246.27349901 140.99623675 246.27473797 147.30225123 246.26951766 153.60830355 C246.26641503 157.36439113 246.2659413 161.12042648 246.27259064 164.87651062 C246.27840899 168.40934604 246.27428598 171.94203905 246.26280212 175.47485924 C246.25893786 177.37413213 246.26480271 179.27341719 246.27105713 181.17268372 C246.18602074 198.54341574 240.85082925 214.89980039 228.6875 227.75 C215.1528758 240.3501624 199.21862685 246.19534039 180.86279297 246.12025452 C180.08416617 246.12110894 179.30553938 246.12196337 178.50331783 246.12284368 C175.91625035 246.12447974 173.32924893 246.11900806 170.7421875 246.11352539 C168.87896221 246.11324309 167.01573682 246.1134021 165.1525116 246.1139679 C160.10974793 246.11425419 155.06700816 246.10838461 150.02425003 246.10139394 C144.74850842 246.09513242 139.47276623 246.09455439 134.19702148 246.09336853 C124.21352145 246.09026346 114.23003241 246.08206119 104.24653721 246.07201904 C92.87776658 246.0608323 81.50899541 246.055341 70.14022064 246.05032361 C46.76014101 246.03987789 23.38007112 246.02229441 0 246 C-0.74043372 242.02782936 -1.12542031 238.27452737 -1.12698364 234.23600769 C-1.12980347 233.11012238 -1.13262329 231.98423706 -1.13552856 230.82423401 C-1.13350433 229.60372849 -1.1314801 228.38322296 -1.12939453 227.12573242 C-1.13114685 225.82923767 -1.13289917 224.53274292 -1.13470459 223.19696045 C-1.13924984 219.6539636 -1.13750194 216.11099598 -1.1343255 212.56799865 C-1.13178955 208.85956606 -1.13414264 205.15113593 -1.13571167 201.44270325 C-1.13752861 195.22131908 -1.13513832 188.99994681 -1.13037109 182.77856445 C-1.12491742 175.57800956 -1.12670103 168.37748292 -1.1321975 161.1769287 C-1.13672791 154.99509984 -1.1373799 148.8132795 -1.13475883 142.63144952 C-1.13319719 138.93876037 -1.13299945 135.24608453 -1.13629532 131.55339622 C-1.13970685 127.44467858 -1.13498558 123.33601016 -1.12939453 119.22729492 C-1.13243088 117.3813549 -1.13243088 117.3813549 -1.13552856 115.49812317 C-1.13270874 114.38633698 -1.12988892 113.27455078 -1.12698364 112.1290741 C-1.12660662 111.15700107 -1.12622959 110.18492804 -1.12584114 109.18339825 C-1 107 -1 107 0 106 C12.21 106 24.42 106 37 106 C37 139.99 37 173.98 37 209 C63.39170248 208.9385092 63.39170248 208.9385092 89.78320312 208.83984375 C100.54988397 208.79133995 111.31647087 208.74688206 122.08325195 208.72900391 C129.9256289 208.71596286 137.76781426 208.68893585 145.61008328 208.64538693 C149.75930552 208.62282706 153.90829194 208.60708601 158.05758095 208.60811615 C161.97047194 208.60886602 165.88284272 208.59078538 169.79559898 208.55883217 C171.22451781 208.55037815 172.6534953 208.54855238 174.08242798 208.55419731 C183.26479322 208.5856141 192.90372177 208.3866835 200.20305347 202.10369492 C207.8384899 194.22712792 208.44242109 185.77479799 208.38818359 175.30102539 C208.39344055 174.04634964 208.39869751 172.79167389 208.40411377 171.49897766 C208.41501324 168.07727545 208.41251736 164.65612143 208.40297651 161.23445058 C208.39534227 157.64054114 208.40243608 154.04665396 208.40713501 150.45274353 C208.41258236 144.41807895 208.40542859 138.38352475 208.39111328 132.34887695 C208.37479607 125.39034292 208.38007251 118.43207276 208.3965925 111.47354513 C208.41024542 105.48091324 208.41210828 99.48836038 208.40427649 93.49571794 C208.39961985 89.92460749 208.39891918 86.3536207 208.40888596 82.78251839 C208.41923181 78.79769923 208.4048562 74.81317099 208.38818359 70.82836914 C208.39729263 69.07236389 208.39729263 69.07236389 208.40658569 67.28088379 C208.34271005 59.0154134 207.58528047 50.63068608 201.59125328 44.33629131 C192.60176429 36.78716246 182.52162266 37.28275791 171.42333984 37.34057617 C169.54995663 37.33211355 167.67658222 37.32146514 165.80322266 37.30880737 C160.74186913 37.2807547 155.68094078 37.28311608 150.61953306 37.29110122 C145.3210502 37.29423397 140.02270094 37.26916942 134.72427368 37.24714661 C124.70186371 37.20974699 114.67958941 37.19756102 104.65711653 37.1945222 C93.24228448 37.18982696 81.82758797 37.15688862 70.41281581 37.12162435 C46.94189361 37.04974469 23.4710234 37.01318182 0 37 C-0.85263508 33.01146207 -1.1288716 29.36015228 -1.1328125 25.2734375 C-1.13410156 23.9946875 -1.13539063 22.7159375 -1.13671875 21.3984375 C-1.13462402 20.73811523 -1.1325293 20.07779297 -1.13037109 19.39746094 C-1.12499807 17.37427335 -1.13034112 15.35130592 -1.13671875 13.328125 C-1.13542969 12.05195312 -1.13414062 10.77578125 -1.1328125 9.4609375 C-1.13168457 8.29353027 -1.13055664 7.12612305 -1.12939453 5.92333984 C-1 3 -1 3 0 0 Z " fill="#000000" transform="translate(2291,1977)"/>
<path d="M0 0 C31.845 -0.103125 63.69 -0.20625 96.5 -0.3125 C106.53470703 -0.35802002 116.56941406 -0.40354004 126.90820312 -0.45043945 C139.21386719 -0.47302246 139.21386719 -0.47302246 144.98474121 -0.47721863 C148.99334711 -0.48185467 153.00161794 -0.5005023 157.01013184 -0.52787781 C162.14008057 -0.56244217 167.26954948 -0.57240681 172.39960384 -0.56536138 C174.27178613 -0.56683231 176.14398702 -0.57658758 178.01606846 -0.59607565 C197.27018164 -0.78702562 213.08874291 3.56110663 227.8125 16.46484375 C232.69341646 21.412724 236.26782454 26.73826664 239.4375 32.875 C239.7557373 33.48609619 240.07397461 34.09719238 240.40185547 34.72680664 C245.68667504 45.74467361 246.49172776 57.22129329 246.39111328 69.22021484 C246.3750164 71.49767922 246.39105949 73.77336993 246.41015625 76.05078125 C246.43994695 95.34039214 241.47391273 111.59439661 227.6953125 125.44140625 C215.37483155 137.13693527 200.37842168 143.13424685 183.3497467 143.12025452 C182.05275848 143.12162918 180.75577026 143.12300385 179.41947937 143.12442017 C177.99978614 143.12088192 176.58009315 143.11724713 175.16040039 143.11352539 C173.6519979 143.11324305 172.14359528 143.11340218 170.63519287 143.1139679 C166.55514687 143.11425402 162.47513044 143.10838713 158.3950913 143.10139394 C154.12565465 143.09512967 149.85621727 143.09455417 145.58677673 143.09336853 C137.50862119 143.09026427 129.43047924 143.08206309 121.35232967 143.07201904 C110.4316324 143.05873631 99.5109314 143.05335068 88.59022808 143.04751682 C71.39347522 143.03812259 54.19675102 143.01819762 37 143 C37 176.99 37 210.98 37 246 C24.79 246 12.58 246 0 246 C0 164.82 0 83.64 0 0 Z M37 37 C37 59.77 37 82.54 37 106 C63.3915777 106.11659105 63.3915777 106.11659105 89.78320312 106.1953125 C100.54996384 106.21902141 111.31659908 106.24685145 122.08325195 106.30175781 C129.92553007 106.34173164 137.76770611 106.36745789 145.61008328 106.37635398 C149.75937777 106.38155095 153.90838037 106.39369294 158.05758095 106.42292023 C161.97036134 106.45025645 165.88273216 106.45840866 169.79559898 106.45243073 C171.22456469 106.45352289 172.65354542 106.46136796 174.08242798 106.4768219 C184.33868519 106.58222028 193.968792 105.89820484 201.9375 98.8125 C209.17087773 90.59416998 209.62963248 82.11906102 209.5 71.5 C209.51546875 70.23285156 209.5309375 68.96570312 209.546875 67.66015625 C209.50597407 57.83370724 207.75666846 49.86683352 200.80300808 42.61280441 C193.38928106 35.98116932 184.34435673 36.44669415 174.93334961 36.54589844 C173.42465241 36.54702846 171.91595301 36.54639003 170.40725708 36.54412842 C166.33541023 36.54298637 162.26404004 36.56641237 158.19230342 36.59442425 C153.92824045 36.61952345 149.66416512 36.62178659 145.40003967 36.62652588 C137.33601889 36.63893073 129.27221646 36.67171839 121.20829159 36.71192384 C110.3039783 36.76510442 99.39960481 36.78660716 88.49519444 36.80993271 C71.32996625 36.84748178 54.16519871 36.92718898 37 37 Z " fill="#000000" transform="translate(2571,1977)"/>
<path d="M0 0 C5.2283312 -0.24918722 10.4531366 -0.42953755 15.68603516 -0.54931641 C17.46138771 -0.59928547 19.2363354 -0.66729273 21.01025391 -0.75439453 C35.7210197 -1.45806087 35.7210197 -1.45806087 41.33935547 2.13647461 C43.84702991 4.63293978 45.93556506 7.132576 48 10 C49.11295466 11.28139544 50.23548331 12.55466692 51.375 13.8125 C51.92414062 14.45316406 52.47328125 15.09382813 53.0390625 15.75390625 C55.55573775 18.6365522 58.14957478 21.44297016 60.75 24.25 C61.26457764 24.80574707 61.77915527 25.36149414 62.30932617 25.93408203 C63.35731333 27.06569299 64.40540937 28.19720311 65.45361328 29.32861328 C71.15708178 35.49311365 76.83048997 41.68507875 82.4375 47.9375 C86.89643915 52.90512383 91.42438331 57.80683252 95.95703125 62.70703125 C100.19790733 67.2926721 104.41454849 71.90044917 108.63232422 76.50732422 C110.02579152 78.02814876 111.42087751 79.54747324 112.81640625 81.06640625 C117.04523476 85.67073948 121.26403086 90.28276595 125.4375 94.9375 C129.89397711 99.90238091 134.41948062 104.80134952 138.94921875 109.69921875 C145.15316761 116.4078422 151.33686793 123.1346369 157.4375 129.9375 C161.89397711 134.90238091 166.41948062 139.80134952 170.94921875 144.69921875 C177.88604217 152.20033413 184.77847618 159.73927631 191.59765625 167.34765625 C193.42707729 169.36745606 195.2673721 171.37378579 197.12109375 173.37109375 C197.66000244 173.95189697 198.19891113 174.5327002 198.75415039 175.13110352 C199.81019697 176.26731992 200.86789716 177.40200232 201.92749023 178.53491211 C204.47200647 181.27200916 206.75064955 184.00086607 209 187 C209.495 94.435 209.495 94.435 210 0 C222.21 0 234.42 0 247 0 C247 81.18 247 162.36 247 246 C212 246 212 246 203.375 239.125 C200.44140625 234.95703125 200.44140625 234.95703125 199.18798828 232.89306641 C197.52443208 230.24217968 195.46806231 228.07158846 193.3125 225.8125 C192.26642578 224.64267578 192.26642578 224.64267578 191.19921875 223.44921875 C187.30402917 219.11123675 183.3515627 214.82547426 179.40722656 210.53222656 C176.64566151 207.52535941 173.88813985 204.51478411 171.12988281 201.50488281 C168.81450701 198.97856886 166.49811546 196.453201 164.1796875 193.9296875 C159.95233249 189.32650235 155.73473917 184.71586224 151.5625 180.0625 C147.10356085 175.09487617 142.57561669 170.19316748 138.04296875 165.29296875 C133.80209267 160.7073279 129.58545151 156.09955083 125.36767578 151.49267578 C123.97420848 149.97185124 122.57912249 148.45252676 121.18359375 146.93359375 C116.95476524 142.32926052 112.73596914 137.71723405 108.5625 133.0625 C104.10602289 128.09761909 99.58051938 123.19865048 95.05078125 118.30078125 C88.84683239 111.5921578 82.66313207 104.8653631 76.5625 98.0625 C72.10356085 93.09487617 67.57561669 88.19316748 63.04296875 83.29296875 C58.79928568 78.70429271 54.57959459 74.09368397 50.35888672 69.48388672 C48.5318952 67.48883561 46.70389578 65.49470971 44.87573242 63.50073242 C43.96292849 62.50499049 43.05032882 61.50906127 42.13793945 60.51293945 C39.77582401 57.93443412 37.41022778 55.35925018 35.0390625 52.7890625 C34.55115234 52.25925781 34.06324219 51.72945312 33.56054688 51.18359375 C32.21056207 49.71789596 30.85923255 48.25343706 29.5078125 46.7890625 C27 44 27 44 24.8515625 40.69921875 C20.6430058 36.71550275 16.84750892 37.14595304 11.25 37.1875 C9.33849822 37.16338411 7.42703168 37.13621165 5.515625 37.10546875 C4.25153809 37.10776489 4.25153809 37.10776489 2.96191406 37.11010742 C1 37 1 37 0 36 C-0.08855161 33.3337397 -0.11524673 30.69352886 -0.09765625 28.02734375 C-0.0962413 27.22970108 -0.09482635 26.43205841 -0.09336853 25.61024475 C-0.08775316 23.05262565 -0.07519812 20.49509282 -0.0625 17.9375 C-0.05748698 16.20768355 -0.05292373 14.47786574 -0.04882812 12.74804688 C-0.03777875 8.49866447 -0.02050386 4.24934688 0 0 Z " fill="#000000" transform="translate(2010,1977)"/>
<path d="M0 0 C12.21 0 24.42 0 37 0 C39.475 5.94 39.475 5.94 42 12 C47.77128307 18.25222332 53.37720991 21.47440257 61.95048904 22.2758007 C65.39294085 22.37928086 68.82411079 22.39076301 72.26806641 22.36889648 C74.2693949 22.37467844 76.27072338 22.38046306 78.27205157 22.38634789 C80.40798995 22.3898165 82.54380507 22.38599681 84.67973709 22.38012505 C89.15412828 22.36845645 93.62826425 22.38077749 98.10263062 22.39674377 C109.21847006 22.43280039 120.33430262 22.4391784 131.45019531 22.43664551 C140.0889614 22.43492704 148.72751612 22.44226971 157.36622369 22.47662407 C161.07842739 22.49056016 164.79027642 22.49665278 168.502491 22.48357964 C191.65082843 22.40576052 212.46308881 23.2880561 230.265625 40.1015625 C246.84665698 58.25107048 247.72643639 79.69944789 247 103 C246.16238384 120.5742095 239.02499167 135.12340459 226.625 147.33984375 C213.8271483 158.30642391 198.52587167 163.18820008 181.8248291 163.12025452 C180.65076358 163.12153615 180.65076358 163.12153615 179.45297956 163.12284368 C176.85209268 163.12447987 174.25127149 163.11900784 171.65039062 163.11352539 C169.77731325 163.11324309 167.90423576 163.11340209 166.03115845 163.1139679 C160.96153618 163.1142542 155.89193769 163.10838445 150.82232094 163.10139394 C145.51855211 163.0951326 140.2147827 163.0945544 134.91101074 163.09336853 C124.87438679 163.09026341 114.83777376 163.08206106 104.80115461 163.07201904 C93.37192563 163.06083246 81.94269612 163.05534104 70.51346302 163.05032361 C47.0089679 163.03987777 23.50448775 163.02154247 0 163 C0 150.79 0 138.58 0 126 C8.41862549 125.97812622 8.41862549 125.97812622 17.00732422 125.95581055 C35.54733687 125.90548163 54.08726587 125.83903938 72.62719536 125.76428509 C83.868316 125.71935372 95.10940516 125.67993287 106.35058594 125.65356445 C116.15043448 125.6305629 125.95018314 125.59714066 135.74995244 125.55129844 C140.9370039 125.52739543 146.12395661 125.50864747 151.31106186 125.50238609 C156.19810773 125.49632207 161.08490103 125.47627452 165.97185326 125.44572449 C167.76079871 125.43696538 169.54977719 125.43321725 171.33874321 125.43499184 C186.46899008 125.49961209 186.46899008 125.49961209 200.3125 119.9375 C207.58371689 111.98989084 208.79032022 103.92625726 208.59692383 93.44042969 C208.56242286 91.37037151 208.57636249 89.30455746 208.59570312 87.234375 C208.58606623 78.62099964 208.03537879 72.03537879 201.6875 65.6875 C194.01568548 60.87031414 188.0091428 60.56985102 179.05078125 60.61523438 C177.06482915 60.6069864 175.07887705 60.5987377 173.09292507 60.59046173 C170.96755196 60.58447864 168.84229656 60.58583968 166.71691895 60.58930969 C162.26788422 60.59615447 157.81910483 60.58018819 153.37011719 60.56091309 C143.91342519 60.52311986 134.45675588 60.51028596 125 60.5 C114.81529472 60.4888986 104.63070868 60.47326381 94.44608402 60.42928743 C90.038738 60.4110989 85.63168706 60.40697856 81.22431278 60.41422272 C79.13183183 60.41538908 77.03949865 60.40967785 74.94703674 60.40104675 C72.4166523 60.39065033 69.88619215 60.39040429 67.3558197 60.40339661 C55.96582927 60.32190052 44.00392507 58.92327915 33.8125 53.5 C33.15451416 53.15815674 32.49652832 52.81631348 31.81860352 52.46411133 C16.8150568 44.26299699 7.47755562 31.04752622 2 15 C0.62521737 9.85888577 0 5.34048023 0 0 Z " fill="#000000" transform="translate(3130,2060)"/>
<path d="M0 0 C81.18 0 162.36 0 246 0 C246 12.21 246 24.42 246 37 C211.68 37 177.36 37 142 37 C142 105.97 142 174.94 142 246 C129.79 246 117.58 246 105 246 C105 177.03 105 108.06 105 37 C70.35 37 35.7 37 0 37 C0 24.79 0 12.58 0 0 Z " fill="#000000" transform="translate(1170,1977)"/>
<path d="M0 0 C46.86 0 93.72 0 142 0 C142 81.18 142 162.36 142 246 C129.79 246 117.58 246 105 246 C105 177.03 105 108.06 105 37 C70.35 37 35.7 37 0 37 C0 24.79 0 12.58 0 0 Z " fill="#000000" transform="translate(3410,1977)"/>
<path d="M0 0 C1.93263231 0.00084742 3.86526559 0.00036889 5.79789734 -0.00132751 C11.01617356 -0.00218441 16.23424077 0.01539173 21.45246863 0.03639436 C26.91636567 0.05521226 32.38026807 0.05691562 37.8441925 0.06047058 C48.17825139 0.06977605 58.51221448 0.09436952 68.84623128 0.12451905 C80.61650285 0.15810975 92.38677912 0.1745608 104.15708673 0.18960536 C128.35778855 0.22092043 152.5584055 0.27365172 176.7590332 0.34057617 C176.78368331 5.44921513 176.80186928 10.55781976 176.81396484 15.66650391 C176.81900525 17.40576785 176.8258375 19.14502753 176.83447266 20.88427734 C176.84655112 23.37883554 176.85226429 25.87333791 176.85668945 28.36791992 C176.86185074 29.15021469 176.86701202 29.93250946 176.87232971 30.73851013 C176.87252546 32.60624732 176.82103015 34.47386821 176.7590332 36.34057617 C175.06662846 38.03298092 172.96213267 37.46430954 170.70368105 37.47252011 C169.60936185 37.46887138 169.60936185 37.46887138 168.49293518 37.46514893 C167.72326147 37.46655907 166.95358775 37.46796922 166.16059059 37.4694221 C163.56130675 37.47309473 160.9620768 37.46973011 158.36279297 37.46655273 C156.50697283 37.46794663 154.65115301 37.46984536 152.79533386 37.47221375 C148.78746345 37.47672131 144.7796033 37.47856707 140.77173042 37.47867584 C134.43014545 37.4798139 128.08861902 37.49263692 121.74705505 37.50823975 C120.14291106 37.51209903 120.14291106 37.51209903 118.50636011 37.51603627 C116.31877195 37.52130334 114.13118384 37.52658883 111.94359577 37.5318923 C97.17413974 37.56701394 82.40475512 37.59355821 67.63525391 37.59106445 C57.68191839 37.5894742 47.72878125 37.60555473 37.7755093 37.64177108 C32.50790222 37.66021295 27.2406262 37.66958982 21.97299385 37.65729523 C17.0111363 37.64582798 12.04987 37.65763383 7.0880909 37.6869297 C5.27172411 37.69355131 3.45530289 37.69173611 1.63895798 37.68063164 C-13.38198027 37.59007687 -13.38198027 37.59007687 -26.05298519 45.04753494 C-30.72521021 50.56068267 -31.21299239 54.90467002 -33.2409668 62.34057617 C-45.4509668 62.34057617 -57.6609668 62.34057617 -70.2409668 62.34057617 C-70.2409668 44.17265982 -63.87291404 29.42933912 -51.2409668 16.34057617 C-35.51899542 2.84818261 -20.02532374 -0.1234519 0 0 Z " fill="#000000" transform="translate(3200.240966796875,1976.659423828125)"/>
<path d="M0 0 C12.21 0 24.42 0 37 0 C37 81.18 37 162.36 37 246 C24.79 246 12.58 246 0 246 C0 164.82 0 83.64 0 0 Z " fill="#000000" transform="translate(3690,1977)"/>
<path d="M0 0 C12.54 0 25.08 0 38 0 C38.02254632 18.10607938 38.04097876 36.21214684 38.05181217 54.31823635 C38.05697531 62.72461384 38.06401834 71.13098201 38.07543945 79.53735352 C38.08538575 86.86167932 38.0918533 94.18599837 38.09408849 101.51033074 C38.09539569 105.39090787 38.09848212 109.2714657 38.10573006 113.15203667 C38.11248942 116.80039557 38.11461713 120.44872711 38.11310768 124.09709167 C38.11351637 126.08288419 38.118912 128.0686737 38.12442017 130.05445862 C38.1230455 131.2254007 38.12167084 132.39634277 38.12025452 133.60276794 C38.12117631 134.62687995 38.1220981 135.65099195 38.12304783 136.70613766 C38 139 38 139 37 140 C34.34543807 140.10095564 31.71744824 140.13970998 29.0625 140.1328125 C27.86959351 140.13424759 27.86959351 140.13424759 26.65258789 140.13571167 C24.9679354 140.13639343 23.28328029 140.13453943 21.59863281 140.13037109 C19.01100803 140.12502275 16.42355684 140.13031619 13.8359375 140.13671875 C12.20312461 140.13605797 10.57031184 140.1347768 8.9375 140.1328125 C8.15834229 140.13483673 7.37918457 140.13686096 6.57641602 140.13894653 C1.11495105 140.11495105 1.11495105 140.11495105 0 139 C-0.09639184 137.20305962 -0.12187425 135.40229107 -0.12025452 133.60276794 C-0.12162918 132.43182587 -0.12300385 131.26088379 -0.12442017 130.05445862 C-0.12082489 128.75830124 -0.11722961 127.46214386 -0.11352539 126.12670898 C-0.11324352 124.75712079 -0.11340125 123.38753244 -0.1139679 122.01794434 C-0.11425588 118.28877052 -0.10835909 114.55962859 -0.10139394 110.83046222 C-0.09516047 106.93735587 -0.09455661 103.04424887 -0.09336853 99.15113831 C-0.09025519 91.77401854 -0.08204178 84.39691351 -0.07201904 77.01980025 C-0.06085797 68.62332457 -0.05534747 60.22684821 -0.05032361 51.83036697 C-0.03985916 34.55356798 -0.02151366 17.2767893 0 0 Z " fill="#000000" transform="translate(2010,2083)"/>
<path d="M0 0 C23.1 0 46.2 0 70 0 C70 12.21 70 24.42 70 37 C46.9 37 23.8 37 0 37 C0 24.79 0 12.58 0 0 Z " fill="#000000" transform="translate(3587,1977)"/>
</svg>
