<?xml version="1.0" standalone="no"?>
<!DOCTYPE svg PUBLIC "-//W3C//DTD SVG 20010904//EN"
 "http://www.w3.org/TR/2001/REC-SVG-20010904/DTD/svg10.dtd">
<svg version="1.0" xmlns="http://www.w3.org/2000/svg"
 width="3939.000000pt" height="422.000000pt" viewBox="0 0 3939.000000 422.000000"
 preserveAspectRatio="xMidYMid meet">

<g transform="translate(0.000000,422.000000) scale(0.100000,-0.100000)"
fill="#000000" stroke="none">
<path d="M310 3575 l0 -245 715 0 715 0 0 -1430 0 -1430 250 0 250 0 0 1430 0
1430 715 0 715 0 0 245 0 245 -1680 0 -1680 0 0 -245z"/>
<path d="M4140 3575 l0 -245 1298 -2 1297 -3 57 -27 c76 -35 142 -98 175 -167
27 -55 28 -60 31 -266 3 -195 2 -215 -18 -268 -30 -79 -102 -156 -182 -193
l-63 -29 -1297 -3 -1298 -2 0 -950 0 -950 245 0 245 0 2 702 3 703 504 0 505
0 600 -702 601 -703 324 0 c306 0 323 1 310 17 -8 10 -276 325 -596 700 -321
375 -583 684 -583 687 0 2 114 6 253 9 277 4 320 11 454 72 223 102 385 293
459 542 49 164 45 562 -8 732 -89 289 -332 512 -623 572 -85 18 -162 19 -1392
19 l-1303 0 0 -245z"/>
<path d="M7970 2145 l0 -1675 1680 0 1680 0 0 245 0 245 -1432 2 -1433 3 0
455 0 455 1183 3 1182 2 0 245 0 245 -1182 2 -1183 3 0 475 0 475 1433 3 1432
2 0 245 0 245 -1680 0 -1680 0 0 -1675z"/>
<path d="M11800 3575 l0 -245 143 0 142 0 1136 -1242 c625 -684 1212 -1327
1305 -1430 l169 -186 233 -1 232 -1 0 1675 0 1675 -245 0 -245 0 -2 -1292 -3
-1292 -490 535 c-269 295 -800 876 -1180 1292 l-690 756 -252 0 -253 1 0 -245z"/>
<path d="M15630 3575 l0 -245 1298 -2 c1200 -3 1300 -4 1340 -20 66 -27 128
-76 167 -132 67 -99 66 -74 63 -1062 l-3 -889 -27 -58 c-36 -75 -112 -149
-185 -179 l-58 -23 -1047 -3 -1048 -2 0 705 0 705 -250 0 -250 0 0 -950 0
-950 1338 2 c1244 3 1341 4 1397 21 231 68 433 234 534 439 92 189 86 101 86
1208 0 900 -1 980 -18 1039 -47 173 -103 267 -232 396 -81 81 -118 109 -190
147 -50 26 -124 57 -165 70 l-75 23 -1337 3 -1338 2 0 -245z"/>
<path d="M19460 2145 l0 -1675 250 0 250 0 0 705 0 705 1054 0 c1153 0 1130
-1 1280 59 254 102 444 324 506 594 20 87 21 114 17 343 -4 279 -11 318 -79
464 -100 215 -290 378 -530 452 l-73 23 -1337 3 -1338 2 0 -1675z m2605 1170
c123 -32 219 -129 251 -254 12 -50 15 -102 12 -245 -3 -172 -5 -184 -30 -239
-35 -75 -112 -149 -185 -179 l-58 -23 -1047 -3 -1048 -2 0 480 0 480 1023 0
c886 0 1031 -2 1082 -15z"/>
<path d="M23965 3805 c-286 -63 -523 -271 -622 -541 -54 -149 -54 -167 -50
-1157 3 -897 4 -913 25 -994 85 -322 333 -561 652 -628 104 -22 1890 -22 2003
-1 257 49 470 213 588 451 90 182 84 100 84 1205 0 1100 5 1026 -79 1205 -100
213 -290 374 -526 447 l-75 23 -970 2 c-780 1 -982 -1 -1030 -12z m1930 -490
c111 -28 216 -125 247 -228 10 -33 13 -247 13 -952 l0 -910 -33 -67 c-36 -74
-96 -133 -170 -170 l-47 -23 -930 0 -930 0 -58 29 c-70 36 -130 99 -165 174
l-27 57 -3 907 c-2 888 -2 907 18 960 40 109 119 184 229 219 52 17 119 18
926 18 748 1 879 -1 930 -14z"/>
<path d="M27830 3813 c-137 -23 -301 -97 -410 -186 -169 -138 -290 -369 -301
-577 l-4 -65 246 -3 246 -2 7 47 c13 98 71 188 154 241 100 65 38 62 1434 62
l1268 0 0 245 0 245 -1307 -1 c-720 -1 -1319 -4 -1333 -6z"/>
<path d="M30950 3575 l0 -245 715 0 715 0 0 -1430 0 -1430 245 0 245 0 0 1675
0 1675 -960 0 -960 0 0 -245z"/>
<path d="M33370 3575 l0 -245 465 0 465 0 0 245 0 245 -465 0 -465 0 0 -245z"/>
<path d="M34780 2145 l0 -1675 245 0 245 0 0 1675 0 1675 -245 0 -245 0 0
-1675z"/>
<path d="M35740 3575 l0 -245 1305 0 c718 0 1305 -3 1304 -7 0 -5 -587 -537
-1304 -1183 l-1304 -1175 0 -247 -1 -248 1680 0 1680 0 0 245 0 245 -1306 2
-1306 3 1306 1180 1305 1180 1 248 0 247 -1680 0 -1680 0 0 -245z"/>
<path d="M27120 2643 c0 -64 39 -204 80 -288 100 -207 273 -358 498 -436 l97
-34 960 -5 c872 -5 965 -7 1011 -23 105 -35 181 -117 205 -221 7 -32 10 -119
7 -231 -3 -169 -5 -183 -29 -236 -37 -79 -91 -134 -168 -172 l-66 -32 -1297
-3 -1298 -2 0 -245 0 -245 1299 0 c1424 0 1373 -2 1527 60 209 83 381 256 465
465 54 136 61 192 57 475 l-4 255 -32 95 c-40 114 -73 173 -145 261 -70 84
-159 151 -272 204 -178 84 -101 79 -1180 85 l-960 5 -57 27 c-97 45 -176 141
-196 235 l-8 38 -247 3 -247 2 0 -37z"/>
<path d="M11800 1420 l0 -950 250 0 250 0 0 950 0 950 -250 0 -250 0 0 -950z"/>
</g>
</svg>
